<?xml version="1.0" encoding="iso-8859-1"?>
<!-- Generator: Adobe Illustrator 19.0.0, SVG Export Plug-In . SVG Version: 6.00 Build 0)  -->
<svg version="1.1" id="Capa_1" xmlns="http://www.w3.org/2000/svg" xmlns:xlink="http://www.w3.org/1999/xlink" x="0px" y="0px"
	 viewBox="0 0 501.216 501.216" style="enable-background:new 0 0 501.216 501.216;" xml:space="preserve">
<g>
	<path style="fill:#F0BC5E;" d="M253.76,218.608c10.384,0,20.328,3.072,28.848,8.48V90.608c0-4.424-3.576-8-8-8h-48
		c-4.424,0-8,3.576-8,8v135.888C229.288,221.472,241.176,218.608,253.76,218.608z"/>
	<path style="fill:#F0BC5E;" d="M310.448,247.672h0.152c14.608-17.04,36.024-27.992,60.008-28.896v-88.168c0-4.424-3.576-8-8-8h-48
		c-4.424,0-8,3.576-8,8v115.056C307.904,246.304,309.224,246.92,310.448,247.672z"/>
	<path style="fill:#F0BC5E;" d="M133.76,218.608c18.024,0,34.848,9.008,44.848,24c2.8,0.696,5.472,1.672,8,2.88l5.968,0.104
		c0.648-0.704,1.368-1.328,2.032-2V130.608c0-4.424-3.576-8-8-8h-48c-4.424,0-8,3.576-8,8v88.16
		C131.664,218.728,132.696,218.608,133.76,218.608z"/>
	<path style="fill:#F0BC5E;" d="M418.608,242.608c18.808,4.704,32,21.6,32,40.984v7.016h8v-200c0-4.424-3.576-8-8-8h-48
		c-4.424,0-8,3.576-8,8V222.88C404.232,226.92,412.648,233.672,418.608,242.608z"/>
	<path style="fill:#F0BC5E;" d="M51.408,290.608c4.232-31.44,26.016-57.28,55.2-67.376V90.608c0-4.424-3.576-8-8-8h-48
		c-4.424,0-8,3.576-8,8v200H51.408z"/>
</g>
<path d="M74.608,50.608c6.144,0,11.688-2.384,15.936-6.192l48.44,26.424c-0.192,1.232-0.376,2.48-0.376,3.768
	c0,13.232,10.768,24,24,24s24-10.768,24-24c0-1.288-0.184-2.536-0.384-3.768l48.44-26.424c4.256,3.808,9.8,6.192,15.944,6.192
	c6.352,0,12.096-2.52,16.392-6.56l47.928,27.392c-0.136,1.04-0.32,2.08-0.32,3.168c0,13.232,10.768,24,24,24s24-10.768,24-24
	c0-1.088-0.184-2.128-0.32-3.176l47.928-27.392c4.296,4.048,10.04,6.568,16.392,6.568c13.232,0,24-10.768,24-24s-10.768-24-24-24
	s-24,10.768-24,24c0,1.088,0.184,2.128,0.32,3.176L355,57.168c-4.296-4.04-10.04-6.56-16.392-6.56s-12.096,2.52-16.392,6.56
	l-47.928-27.384c0.136-1.048,0.32-2.088,0.32-3.176c0-13.232-10.768-24-24-24s-24,10.768-24,24c0,1.288,0.184,2.536,0.384,3.768
	L178.552,56.8c-4.256-3.808-9.8-6.192-15.944-6.192s-11.688,2.384-15.936,6.192l-48.44-26.424c0.192-1.232,0.376-2.48,0.376-3.768
	c0-13.232-10.768-24-24-24s-24,10.768-24,24S61.376,50.608,74.608,50.608z M426.608,18.608c4.408,0,8,3.592,8,8s-3.592,8-8,8
	s-8-3.592-8-8S422.2,18.608,426.608,18.608z M338.608,66.608c4.408,0,8,3.592,8,8s-3.592,8-8,8s-8-3.592-8-8
	S334.2,66.608,338.608,66.608z M250.608,18.608c4.408,0,8,3.592,8,8s-3.592,8-8,8s-8-3.592-8-8S246.2,18.608,250.608,18.608z
	 M162.608,66.608c4.408,0,8,3.592,8,8s-3.592,8-8,8s-8-3.592-8-8S158.2,66.608,162.608,66.608z M74.608,18.608c4.408,0,8,3.592,8,8
	s-3.592,8-8,8s-8-3.592-8-8S70.2,18.608,74.608,18.608z"/>
<path d="M490.336,460.552c-5.784-20.248-22.208-35.392-42.856-39.52l-44.872-8.984v-2.104c14.8-8.592,25.824-22.928,30.048-39.952
	c14.76-2.84,25.952-15.808,25.952-31.384v-55.016c0-22.064-14.28-41.336-35.088-47.904c-11.648-15.76-30.032-25.08-49.752-25.08
	c-24.52,0-47.76,9.928-64.848,27.272c-1.768-0.792-3.52-1.6-5.4-2.192c-11.648-15.76-30.032-25.08-49.752-25.08
	c-25.36,0-48.32,10.432-64.856,27.2c-1.76-0.792-3.544-1.544-5.384-2.128c-11.656-15.752-30.04-25.072-49.76-25.072
	c-50.272,0-91.16,40.888-91.16,91.16v36.84c0,15.576,11.192,28.544,25.952,31.392c4.224,17.024,15.248,31.36,30.048,39.952v2.104
	l-44.864,8.976c-20.656,4.128-37.08,19.272-42.864,39.52L0,498.608h120h10.608h240h10.608h120L490.336,460.552z M370.608,402.608
	c-22.368,0-41.608-15.784-46.584-37.224c8.76-5.712,14.584-15.56,14.584-26.776v-20.64c8.432-3.304,16.232-8.28,22.624-14.672
	l2.128-2.128l0.848,0.64c15.752,11.808,34.808,18.936,54.4,20.472v32.328C418.608,381.08,397.08,402.608,370.608,402.608z
	 M310.608,417.648l-28-5.6v-2.104c12.816-7.44,22.792-19.184,27.992-33.248c5.224,14.104,15.264,25.8,28.008,33.216v2.136
	L310.608,417.648z M190.616,417.648l-28.008-5.6v-2.136c12.744-7.416,22.784-19.112,28.008-33.216
	c5.2,14.072,15.176,25.816,27.992,33.248v2.104L190.616,417.648z M186.608,352.384c-4.76-2.776-8-7.88-8-13.776s3.24-11,8-13.776
	V352.384z M202.608,354.608v-32.536c14.576-1.752,28.08-8.232,38.624-18.776l2.128-2.128l0.848,0.64
	c15.752,11.808,34.808,18.936,54.4,20.472v32.328c0,26.472-21.528,48-48,48S202.608,381.08,202.608,354.608z M314.608,352.384
	v-27.552c4.76,2.776,8,7.88,8,13.776S319.368,349.608,314.608,352.384z M434.608,352.384v-27.552c4.76,2.776,8,7.88,8,13.776
	S439.368,349.608,434.608,352.384z M373.768,226.608c15.376,0,29.656,7.64,38.184,20.44l1.712,2.576l3,0.752
	c15.28,3.816,25.944,17.472,25.944,33.216v27.464c-4.728-2.752-10.144-4.448-16-4.448c-18.912,0-37.664-6.248-52.8-17.6
	l-11.952-8.968l-11.936,11.936c-3.328,3.328-7.184,6.112-11.312,8.376v-16.768c0-14.376-6.136-27.496-16.12-36.76
	C336.344,233.896,354.608,226.608,373.768,226.608z M253.768,226.608c15.376,0,29.656,7.64,38.184,20.44l1.712,2.576l3,0.752
	c15.28,3.816,25.944,17.472,25.944,33.216v27.464c-4.728-2.752-10.144-4.448-16-4.448c-18.912,0-37.664-6.248-52.8-17.6
	l-11.952-8.968l-11.936,11.936c-9.432,9.44-21.976,14.632-35.312,14.632c-5.856,0-11.272,1.696-16,4.448v-9.296
	C178.608,260.32,212.32,226.608,253.768,226.608z M133.768,226.608c15.376,0,29.656,7.64,38.184,20.44l1.712,2.576l3,0.752
	c0.512,0.128,0.976,0.384,1.48,0.536c-9.8,14.528-15.536,32.032-15.536,50.856v1.448c-10.36-2.952-20.184-7.744-28.8-14.208
	l-11.952-8.968l-11.936,11.936c-9.432,9.44-21.976,14.632-35.312,14.632c-5.856,0-11.272,1.696-16,4.448v-9.296
	C58.608,260.32,92.32,226.608,133.768,226.608z M58.608,338.608c0-5.896,3.24-11,8-13.776v27.552
	C61.848,349.608,58.608,344.504,58.608,338.608z M82.608,354.608v-32.536c14.576-1.752,28.08-8.232,38.624-18.776l2.128-2.128
	l0.848,0.64c11.376,8.536,24.568,14.504,38.4,17.8v19c0,11.216,5.824,21.064,14.584,26.776
	c-4.976,21.44-24.216,37.224-46.584,37.224C104.136,402.608,82.608,381.08,82.608,354.608z M124.576,482.608H21.216l5.048-17.664
	c4.136-14.464,15.864-25.288,30.616-28.232l57.728-11.544v-8.664c5.128,1.328,10.464,2.104,16,2.104c5.504,0,10.856-0.752,16-2.096
	v8.656l10.568,2.112c-12.6,7.104-22.176,18.848-26.296,33.272L124.576,482.608z M320.856,482.608l-6.488-25.944l-15.52,3.88
	l5.512,22.064H196.856l5.512-22.056l-15.52-3.88l-6.488,25.936h-39.144l5.048-17.664c4.136-14.464,15.864-25.288,30.616-28.232
	l57.728-11.544v-8.664c5.128,1.328,10.464,2.104,16,2.104c5.536,0,10.872-0.776,16-2.104v8.664l57.736,11.544
	c14.752,2.952,26.48,13.768,30.616,28.232l5.04,17.664H320.856z M376.64,482.608l-6.304-22.056
	c-4.12-14.424-13.696-26.16-26.296-33.272l10.568-2.112v-8.656c5.144,1.344,10.496,2.096,16,2.096c5.536,0,10.872-0.776,16-2.104
	v8.664l57.736,11.544c14.752,2.952,26.48,13.768,30.616,28.232l5.04,17.664H376.64z"/>
<g>
</g>
<g>
</g>
<g>
</g>
<g>
</g>
<g>
</g>
<g>
</g>
<g>
</g>
<g>
</g>
<g>
</g>
<g>
</g>
<g>
</g>
<g>
</g>
<g>
</g>
<g>
</g>
<g>
</g>
</svg>
